<svg width="1024" height="1024" viewBox="0 0 1024 1024" fill="none" xmlns="http://www.w3.org/2000/svg">
<rect width="1024" height="1024" rx="229.069" fill="#1B2838"/>
<circle cx="512" cy="512" r="358.4" stroke="#C8956C" stroke-opacity="0.85" stroke-width="57.344"/>
<circle cx="512" cy="512" r="399.36" stroke="#8BB5A2" stroke-opacity="0.3" stroke-width="12.288"/>
<circle cx="512" cy="153.6" r="19.456" fill="#C8956C"/>
<path d="M490.818 677.52H353.182V305.156H490.636C528.576 305.156 561.242 312.611 588.636 327.52C616.152 342.308 637.364 363.641 652.273 391.52C667.182 419.278 674.636 452.49 674.636 491.156C674.636 529.944 667.182 563.278 652.273 591.156C637.485 619.035 616.333 640.429 588.818 655.338C561.303 670.126 528.636 677.52 490.818 677.52ZM443.182 600.793H487.364C508.212 600.793 525.848 597.278 540.273 590.247C554.818 583.096 565.788 571.52 573.182 555.52C580.697 539.399 584.455 517.944 584.455 491.156C584.455 464.368 580.697 443.035 573.182 427.156C565.667 411.156 554.576 399.641 539.909 392.611C525.364 385.459 507.424 381.884 486.091 381.884H443.182V600.793Z" fill="#FAFAF8"/>
</svg>
