<svg width="1024" height="1024" viewBox="0 0 1024 1024" fill="none" xmlns="http://www.w3.org/2000/svg">
<rect width="1024" height="1024" rx="229.069" fill="#1B2838"/>
<circle cx="512" cy="512" r="358.4" stroke="#E8C88A" stroke-opacity="0.85" stroke-width="57.344"/>
<circle cx="512" cy="512" r="399.36" stroke="#8BB5A2" stroke-opacity="0.3" stroke-width="12.288"/>
<circle cx="512" cy="153.6" r="19.456" fill="#C8956C"/>
<path d="M572.455 416.793C571.242 403.459 565.848 393.096 556.273 385.702C546.818 378.187 533.303 374.429 515.727 374.429C504.091 374.429 494.394 375.944 486.636 378.975C478.879 382.005 473.061 386.187 469.182 391.52C465.303 396.732 463.303 402.732 463.182 409.52C462.939 415.096 464.03 420.005 466.455 424.247C469 428.49 472.636 432.247 477.364 435.52C482.212 438.672 488.03 441.459 494.818 443.884C501.606 446.308 509.242 448.429 517.727 450.247L549.727 457.52C568.152 461.52 584.394 466.853 598.455 473.52C612.636 480.187 624.515 488.126 634.091 497.338C643.788 506.55 651.121 517.156 656.091 529.156C661.061 541.156 663.606 554.611 663.727 569.52C663.606 593.035 657.667 613.217 645.909 630.065C634.152 646.914 617.242 659.823 595.182 668.793C573.242 677.762 546.758 682.247 515.727 682.247C484.576 682.247 457.424 677.581 434.273 668.247C411.121 658.914 393.121 644.732 380.273 625.702C367.424 606.672 360.818 582.611 360.455 553.52H446.636C447.364 565.52 450.576 575.52 456.273 583.52C461.97 591.52 469.788 597.581 479.727 601.702C489.788 605.823 501.424 607.884 514.636 607.884C526.758 607.884 537.061 606.247 545.545 602.975C554.152 599.702 560.758 595.156 565.364 589.338C569.97 583.52 572.333 576.853 572.455 569.338C572.333 562.308 570.152 556.308 565.909 551.338C561.667 546.247 555.121 541.884 546.273 538.247C537.545 534.49 526.394 531.035 512.818 527.884L473.909 518.793C441.667 511.399 416.273 499.459 397.727 482.975C379.182 466.368 369.97 443.944 370.091 415.702C369.97 392.672 376.152 372.49 388.636 355.156C401.121 337.823 418.394 324.308 440.455 314.611C462.515 304.914 487.667 300.065 515.909 300.065C544.758 300.065 569.788 304.975 591 314.793C612.333 324.49 628.879 338.126 640.636 355.702C652.394 373.278 658.394 393.641 658.636 416.793H572.455Z" fill="#FAFAF8"/>
</svg>
